# Exported from ProBuilder
# http://www.procore3d.com/probuilder
# 2022/12/1 17:15:19

mtllib ./New_Game_Object.mtl
o New Game Object

g New Game Object
v 328.6 72.6 -99
v 330.9225 83.56033 -99
v 337.8875 85.85645 -99
v 336.6893 95.84585 -99
v 326.2373 97.21665 -99
v 340.3261 102.6496 -99
v 346.8839 112.9237 -98.99999
v 351.5345 113.643 -98.99999
v 356.9505 103.535 -99
v 372.7905 99.8404 -99
v 363.3719 99.02089 -99
v 363.7891 88.75315 -99
v 371.8492 87.00185 -99
v 377.4922 75.38023 -99
v 377.4922 75.38024 -184.3043
v 337.8875 85.85645 -184.3043
v 328.6 72.60001 -184.3043
v 330.9225 83.56034 -184.3043
v 363.7891 88.75317 -184.3043
v 371.8492 87.00186 -184.3043
v 336.6893 95.84586 -184.3043
v 363.3719 99.0209 -184.3043
v 356.9505 103.535 -184.3043
v 372.7905 99.84041 -184.3043
v 340.3261 102.6496 -184.3043
v 346.8839 112.9237 -184.3043
v 351.5345 113.643 -184.3043
v 326.2373 97.21666 -184.3043
v 326.2373 97.21665 -99
v 340.3261 102.6496 -99
v 326.2373 97.21666 -184.3043
v 340.3261 102.6496 -184.3043
v 336.6893 95.84585 -99
v 326.2373 97.21665 -99
v 336.6893 95.84586 -184.3043
v 326.2373 97.21666 -184.3043
v 346.8839 112.9237 -98.99999
v 351.5345 113.643 -98.99999
v 346.8839 112.9237 -184.3043
v 351.5345 113.643 -184.3043
v 351.5345 113.643 -98.99999
v 356.9505 103.535 -99
v 351.5345 113.643 -184.3043
v 356.9505 103.535 -184.3043
v 340.3261 102.6496 -99
v 346.8839 112.9237 -98.99999
v 340.3261 102.6496 -184.3043
v 346.8839 112.9237 -184.3043
v 356.9505 103.535 -99
v 372.7905 99.8404 -99
v 356.9505 103.535 -184.3043
v 372.7905 99.84041 -184.3043
v 372.7905 99.8404 -99
v 363.3719 99.02089 -99
v 372.7905 99.84041 -184.3043
v 363.3719 99.0209 -184.3043
v 363.3719 99.02089 -99
v 363.7891 88.75315 -99
v 363.3719 99.0209 -184.3043
v 363.7891 88.75317 -184.3043
v 337.8875 85.85645 -99
v 336.6893 95.84585 -99
v 337.8875 85.85645 -184.3043
v 336.6893 95.84586 -184.3043
v 363.7891 88.75315 -99
v 371.8492 87.00185 -99
v 363.7891 88.75317 -184.3043
v 371.8492 87.00186 -184.3043
v 371.8492 87.00185 -99
v 377.4922 75.38023 -99
v 371.8492 87.00186 -184.3043
v 377.4922 75.38024 -184.3043
v 328.6 72.6 -99
v 330.9225 83.56033 -99
v 328.6 72.60001 -184.3043
v 330.9225 83.56034 -184.3043
v 330.9225 83.56033 -99
v 337.8875 85.85645 -99
v 330.9225 83.56034 -184.3043
v 337.8875 85.85645 -184.3043
v 377.4922 75.38023 -99
v 328.6 72.6 -99
v 377.4922 75.38024 -184.3043
v 328.6 72.60001 -184.3043

vn 0 -8.815527E-08 0.7395
vn 0 -8.815527E-08 0.7395
vn 0 -8.815527E-08 0.7395
vn 0 -8.815527E-08 0.7395
vn 0 -8.815527E-08 0.7395
vn 0 -8.815527E-08 0.7395
vn 0 -8.815527E-08 0.7395
vn 0 -8.815527E-08 0.7395
vn 0 -8.815527E-08 0.7395
vn 0 -8.815527E-08 0.7395
vn 0 -8.815527E-08 0.7395
vn 0 -8.815527E-08 0.7395
vn 0 -8.815527E-08 0.7395
vn 0 -8.815527E-08 0.7395
vn 0 8.815527E-08 -0.7395
vn 0 8.815527E-08 -0.7395
vn 0 8.815526E-08 -0.7395
vn 0 8.815527E-08 -0.7395
vn 0 8.815527E-08 -0.7395
vn 0 8.815527E-08 -0.7395
vn 0 8.815527E-08 -0.7395
vn 0 8.815527E-08 -0.7395
vn 0 8.815527E-08 -0.7395
vn 0 8.815527E-08 -0.7395
vn 0 8.815527E-08 -0.7395
vn 0 8.815527E-08 -0.7395
vn 0 8.815527E-08 -0.7395
vn 0 8.815527E-08 -0.7395
vn -0.462223 0.6560279 7.820461E-08
vn -0.462223 0.6560279 7.820461E-08
vn -0.462223 0.6560279 7.820461E-08
vn -0.462223 0.6560279 7.820461E-08
vn -0.1745583 -0.7284418 -8.683702E-08
vn -0.1745583 -0.7284418 -8.683702E-08
vn -0.1745583 -0.7284418 -8.683702E-08
vn -0.1745583 -0.7284418 -8.683702E-08
vn -0.2046565 0.7241413 8.632436E-08
vn -0.2046565 0.7241413 8.632436E-08
vn -0.2046565 0.7241413 8.632436E-08
vn -0.2046565 0.7241413 8.632436E-08
vn 0.9296269 0.2726181 3.24986E-08
vn 0.9296269 0.2726181 3.24986E-08
vn 0.9296269 0.2726181 3.24986E-08
vn 0.9296269 0.2726181 3.24986E-08
vn -0.904256 0.3158877 3.765675E-08
vn -0.904256 0.3158877 3.765675E-08
vn -0.904256 0.3158877 3.765675E-08
vn -0.904256 0.3158877 3.765675E-08
vn 0.3006898 0.7055635 8.410972E-08
vn 0.3006898 0.7055635 8.410972E-08
vn 0.3006898 0.7055635 8.410972E-08
vn 0.3006898 0.7055635 8.410972E-08
vn 0.1168062 -0.7347359 -8.758734E-08
vn 0.1168062 -0.7347359 -8.758734E-08
vn 0.1168062 -0.7347359 -8.758734E-08
vn 0.1168062 -0.7347359 -8.758734E-08
vn 0.9995486 0.0222284 2.649831E-09
vn 0.9995486 0.0222284 2.649831E-09
vn 0.9995486 0.0222284 2.649831E-09
vn 0.9995486 0.0222284 2.649831E-09
vn -0.9960861 -0.0653896 -7.795046E-09
vn -0.9960861 -0.0653896 -7.795046E-09
vn -0.9960861 -0.0653896 -7.795046E-09
vn -0.9960861 -0.0653896 -7.795046E-09
vn 0.2817962 0.7098191 8.461702E-08
vn 0.2817962 0.7098191 8.461702E-08
vn 0.2817962 0.7098191 8.461702E-08
vn 0.2817962 0.7098191 8.461702E-08
vn 0.9411228 0.2501002 2.981427E-08
vn 0.9411228 0.2501002 2.981427E-08
vn 0.9411228 0.2501002 2.981427E-08
vn 0.9411228 0.2501002 2.981427E-08
vn -0.987934 0.1145767 1.36586E-08
vn -0.987934 0.1145767 1.36586E-08
vn -0.987934 0.1145767 1.36586E-08
vn -0.987934 0.1145767 1.36586E-08
vn -0.4070317 0.6757438 8.055493E-08
vn -0.4070317 0.6757438 8.055493E-08
vn -0.4070317 0.6757438 8.055493E-08
vn -0.4070317 0.6757438 8.055493E-08
vn 0.07663873 -0.7376242 -8.793165E-08
vn 0.07663873 -0.7376242 -8.793165E-08
vn 0.07663873 -0.7376242 -8.793165E-08
vn 0.07663873 -0.7376242 -8.793165E-08

vt 0 0
vt -2.32254 -14.81526
vt -9.287506 -17.91896
vt -8.089325 -31.4218
vt 2.362701 -33.27473
vt -11.7261 -40.61848
vt -18.28387 -54.50615
vt -22.93445 -55.4785
vt -28.35049 -41.81535
vt -44.19052 -36.8213
vt -34.77185 -35.71356
vt -35.18906 -21.83449
vt -43.24924 -19.46722
vt -48.89218 -3.758087
vt 48.89218 -3.758087
vt 9.287506 -17.91896
vt 1.199723E-12 -2.672585E-12
vt 2.32254 -14.81526
vt 35.18906 -21.83449
vt 43.24924 -19.46722
vt 8.089325 -31.4218
vt 34.77185 -35.71356
vt 28.35049 -41.81535
vt 44.19052 -36.8213
vt 11.7261 -40.61848
vt 18.28387 -54.50615
vt 22.93445 -55.4785
vt -2.362701 -33.27473
vt 36.44788 -44.30096
vt 36.44788 -28.41307
vt -78.90616 -44.30096
vt -78.90616 -28.41307
vt 54.84971 -41.66452
vt 54.84971 -31.04952
vt -60.50432 -41.66452
vt -60.50432 -31.04951
vt 26.24953 -38.73259
vt 26.24953 -33.98145
vt -89.1045 -38.73259
vt -89.1045 -33.98145
vt 93.45119 -43.70575
vt 93.45119 -29.00829
vt -21.90284 -43.70574
vt -21.90284 -29.00829
vt 8.261513 -44.03608
vt 8.261513 -28.67797
vt -107.0925 -44.03607
vt -107.0925 -28.67796
vt -0.05234528 -84.48134
vt -0.05234528 -67.8727
vt -115.4064 -84.48134
vt -115.4064 -67.8727
vt 101.1242 -41.09882
vt 101.1242 -31.61523
vt -14.22983 -41.09881
vt -14.22983 -31.61522
vt 85.38701 -43.29969
vt 85.38701 -29.41435
vt -29.96702 -43.29968
vt -29.96702 -29.41434
vt 10.07115 -66.56497
vt 10.07115 -53.00908
vt -105.2829 -66.56496
vt -105.2829 -53.00907
vt 25.86659 -40.55733
vt 25.86659 -32.15671
vt -89.48744 -40.55733
vt -89.48744 -32.1567
vt 53.03107 -44.70297
vt 53.03107 -28.01107
vt -62.32296 -44.70297
vt -62.32296 -28.01106
vt 15.21891 -83.67513
vt 15.21891 -68.67892
vt -100.1351 -83.67512
vt -100.1351 -68.67891
vt 21.91269 -63.59962
vt 21.91269 -55.97442
vt -93.44135 -63.59962
vt -93.44135 -55.97441
vt 82.19522 -60.87522
vt 82.19522 -11.83882
vt -33.15882 -60.87521
vt -33.15882 -11.83881

g New Game Object_0
usemtl Mat_Palace
f 29/29/29 30/30/30 32/32/32 31/31/31
f 33/33/33 34/34/34 36/36/36 35/35/35
f 37/37/37 38/38/38 40/40/40 39/39/39
f 41/41/41 42/42/42 44/44/44 43/43/43
f 45/45/45 46/46/46 48/48/48 47/47/47
f 49/49/49 50/50/50 52/52/52 51/51/51
f 53/53/53 54/54/54 56/56/56 55/55/55
f 57/57/57 58/58/58 60/60/60 59/59/59
f 61/61/61 62/62/62 64/64/64 63/63/63
f 65/65/65 66/66/66 68/68/68 67/67/67
f 69/69/69 70/70/70 72/72/72 71/71/71
f 73/73/73 74/74/74 76/76/76 75/75/75
f 77/77/77 78/78/78 80/80/80 79/79/79
f 81/81/81 82/82/82 84/84/84 83/83/83

g New Game Object_1
usemtl Mat_Palace
f 4/4/4 6/6/6 5/5/5
f 9/9/9 8/8/8 7/7/7
f 9/9/9 7/7/7 6/6/6
f 4/4/4 9/9/9 6/6/6
f 11/11/11 10/10/10 9/9/9
f 4/4/4 11/11/11 9/9/9
f 4/4/4 12/12/12 11/11/11
f 3/3/3 12/12/12 4/4/4
f 14/14/14 13/13/13 12/12/12
f 3/3/3 14/14/14 12/12/12
f 3/3/3 2/2/2 1/1/1
f 14/14/14 3/3/3 1/1/1
f 17/17/17 16/16/16 15/15/15
f 17/17/17 18/18/18 16/16/16
f 19/19/19 15/15/15 16/16/16
f 19/19/19 20/20/20 15/15/15
f 21/21/21 19/19/19 16/16/16
f 22/22/22 19/19/19 21/21/21
f 23/23/23 22/22/22 21/21/21
f 23/23/23 24/24/24 22/22/22
f 25/25/25 23/23/23 21/21/21
f 25/25/25 26/26/26 23/23/23
f 26/26/26 27/27/27 23/23/23
f 28/28/28 25/25/25 21/21/21

